<svg width="114" height="18" viewBox="0 0 114 18" fill="none" xmlns="http://www.w3.org/2000/svg">
<path d="M71.2539 7.5964H50.2312C50.1157 7.5964 50.0694 7.75064 50.1618 7.82005L52.4412 9.33933L54.5204 10.7892C54.6128 10.8509 54.7206 10.8895 54.8361 10.8895L63.9999 10.9512C64.2463 10.9512 64.4465 11.1979 64.4465 11.4987V12.964C64.4465 14.4139 63.5301 14.8766 62.1671 14.8766H47.2895C46.2037 14.8766 45.0486 14.0514 44.9716 12.6632V5.33676C45.064 3.8946 46.0035 3.1234 47.0816 3.1234H61.9746C63.4685 3.1234 64.1847 3.72493 64.1847 4.83547V5.1748H73.4331V4.29563C73.4331 1.86632 70.6224 0.0154213 67.7963 0.0154213H42.0223C39.1269 0.0154213 35.9773 1.81234 35.9773 5.61439V12.3933C35.9773 16.0103 39.1808 17.9923 42.0762 17.9923H67.8348C71.0228 17.9923 73.4331 16.7506 73.4331 12.3933V9.47815C73.4331 8.13625 73.0327 7.5964 71.2539 7.5964Z" fill="white"/>
<path d="M36.062 18H25.104C24.7883 18 24.4726 17.9152 24.2031 17.7455L15.0624 11.6992C14.4772 11.3445 13.7995 11.1517 13.1142 11.1517H9.04053V17.9923H0V0.00771065H9.03283V6.84833H13.0603C13.7456 6.84833 14.4156 6.66324 15.0008 6.30848L24.6189 0.2545C24.8884 0.0925463 25.2041 0.00771065 25.5199 0.00771065H36.062L23.1789 8.42931L19.8291 7.38818L36.062 17.9846V18Z" fill="white"/>
<path d="M88.1413 0H77.0986V17.9923H86.1006V5.0437L93.0158 11.5527H98.8914L105.006 5.0437V17.9923H114V0H102.965L96.3425 6.26992L98.7528 9.40103L88.1413 0Z" fill="white"/>
</svg>
