<svg width="80" height="80" viewBox="0 0 80 80" fill="none" xmlns="http://www.w3.org/2000/svg">
<path fill-rule="evenodd" clip-rule="evenodd" d="M34.1673 70.0007H30.834V66.6673L34.1673 70.0007Z" fill="#CCCCCC"/>
<path fill-rule="evenodd" clip-rule="evenodd" d="M34.1673 70.0007L30.834 66.6673V70.0007H34.1673Z" fill="#CCCCCC"/>
<path fill-rule="evenodd" clip-rule="evenodd" d="M31.6395 10.0169L30.834 11.0153V15.6519L31.6395 16.6503H46.7118L47.5173 15.6519V11.0153L46.7118 10.0169H31.6395ZM29.29 7.6205C29.755 7.01949 30.4547 6.68359 31.184 6.68359H47.1673C47.9727 6.68359 48.635 7.0991 49.0406 7.59486L49.0478 7.60369L50.2496 9.09334L50.2673 9.11693C50.6122 9.57683 50.8507 10.1888 50.8507 10.8503V15.8169C50.8507 16.4354 50.6638 17.0715 50.2248 17.6047L49.0613 19.0467C48.5963 19.6477 47.8966 19.9836 47.1673 19.9836H31.184C30.3786 19.9836 29.7163 19.5681 29.3107 19.0723L29.3035 19.0635L28.1017 17.5739L28.084 17.5503C27.7391 17.0904 27.5007 16.4784 27.5007 15.8169V10.8503C27.5007 10.2318 27.6875 9.59567 28.1266 9.06245L29.29 7.6205Z" fill="#CCCCCC"/>
<path fill-rule="evenodd" clip-rule="evenodd" d="M48.334 13.334H57.3007C58.4825 13.334 59.5598 13.8681 60.3179 14.7323L61.355 15.9031C62.0979 16.7522 62.5006 17.863 62.5006 19.0007V37.5007H59.1673V19.0007C59.1673 18.6399 59.0379 18.3187 58.8489 18.1011L57.813 16.9315C57.638 16.7315 57.4502 16.6673 57.3007 16.6673H48.334V13.334Z" fill="#CCCCCC"/>
<path fill-rule="evenodd" clip-rule="evenodd" d="M21.034 16.6673C20.8844 16.6673 20.6966 16.7315 20.5216 16.9315L20.515 16.9391L19.4857 18.1011C19.2967 18.3187 19.1673 18.6399 19.1673 19.0007V64.334C19.1673 64.6948 19.2967 65.016 19.4858 65.2336L19.4883 65.2365L20.5216 66.4031C20.6967 66.6031 20.8844 66.6673 21.034 66.6673H30.834V70.0007H21.034C19.8523 70.0007 18.775 69.4666 18.0169 68.6026L18.013 68.5982L16.9797 67.4315C16.2368 66.5825 15.834 65.4716 15.834 64.334V19.0007C15.834 17.863 16.2368 16.7522 16.9797 15.9031L16.9863 15.8956L18.0167 14.7322C18.7749 13.8681 19.8522 13.334 21.034 13.334H30.0007V16.6673H21.034Z" fill="#CCCCCC"/>
<path fill-rule="evenodd" clip-rule="evenodd" d="M45.8592 61.0981C46.7129 60.3882 47.7733 60.0007 48.8832 60.0007H57.7848C58.8742 60.0007 59.9515 60.3853 60.8088 61.0981L64.8202 64.372L64.8228 64.3741C66.0086 65.3355 66.6673 66.7843 66.6673 68.284V71.6673H63.334V68.284C63.334 67.7515 63.0997 67.2679 62.7227 66.9627L62.7176 66.9585L58.68 63.6633C58.4211 63.4471 58.0969 63.334 57.7848 63.334H48.8832C48.5597 63.334 48.2503 63.444 47.9879 63.6632L47.9734 63.6753L43.9551 66.9547C43.5716 67.2733 43.334 67.7686 43.334 68.284V71.6673H40.0007V68.284C40.0007 66.7675 40.6876 65.3308 41.8348 64.3826L41.8427 64.3761L45.8592 61.0981Z" fill="#CCCCCC"/>
<path fill-rule="evenodd" clip-rule="evenodd" d="M53.334 45.0007C50.5726 45.0007 48.334 47.2392 48.334 50.0007C48.334 52.7621 50.5726 55.0007 53.334 55.0007C56.0954 55.0007 58.334 52.7621 58.334 50.0007C58.334 47.2392 56.0954 45.0007 53.334 45.0007ZM45.0007 50.0007C45.0007 45.3983 48.7316 41.6673 53.334 41.6673C57.9364 41.6673 61.6673 45.3983 61.6673 50.0007C61.6673 54.603 57.9364 58.334 53.334 58.334C48.7316 58.334 45.0007 54.603 45.0007 50.0007Z" fill="#CCCCCC"/>
<path fill-rule="evenodd" clip-rule="evenodd" d="M50.834 31.6673H25.5007V28.334H47.5007L50.834 31.6673ZM34.1673 45.0007H25.5007V48.334H37.5007L34.1673 45.0007ZM42.5007 36.6673H25.5007V40.0007H45.834L42.5007 36.6673Z" fill="#CCCCCC"/>
<path fill-rule="evenodd" clip-rule="evenodd" d="M45.8595 61.0978C46.7133 60.3878 47.7737 60.0003 48.8835 60.0003H57.7851C58.8745 60.0003 59.9518 60.3849 60.8091 61.0978L64.8205 64.3717L64.8231 64.3738C66.0089 65.3352 66.6676 66.784 66.6676 68.2837V71.667H63.3343V68.2837C63.3343 67.7511 63.1 67.2676 62.723 66.9623L62.7179 66.9582L58.6803 63.6629C58.4214 63.4467 58.0972 63.3337 57.7851 63.3337H48.8835C48.56 63.3337 48.2506 63.4437 47.9883 63.6629L47.9738 63.675L43.9554 66.9544C43.572 67.273 43.3343 67.7683 43.3343 68.2837V71.667H40.001V68.2837C40.001 66.7672 40.6879 65.3305 41.8351 64.3823L41.8431 64.3757L45.8595 61.0978Z" fill="#C4A96C"/>
<path fill-rule="evenodd" clip-rule="evenodd" d="M53.3343 45.0003C50.5729 45.0003 48.3343 47.2389 48.3343 50.0003C48.3343 52.7617 50.5729 55.0003 53.3343 55.0003C56.0957 55.0003 58.3343 52.7617 58.3343 50.0003C58.3343 47.2389 56.0957 45.0003 53.3343 45.0003ZM45.001 50.0003C45.001 45.398 48.7319 41.667 53.3343 41.667C57.9367 41.667 61.6676 45.398 61.6676 50.0003C61.6676 54.6027 57.9367 58.3337 53.3343 58.3337C48.7319 58.3337 45.001 54.6027 45.001 50.0003Z" fill="#C4A96C"/>
</svg>
