<svg width="80" height="80" viewBox="0 0 80 80" fill="none" xmlns="http://www.w3.org/2000/svg">
<path fill-rule="evenodd" clip-rule="evenodd" d="M18.3333 7.6433C18.9585 7.01818 19.8063 6.66699 20.6904 6.66699H62.643C63.527 6.66699 64.3749 7.01818 65 7.6433L67.357 10.0003C67.9674 10.6107 68.3333 11.4338 68.3333 12.3383V67.649C68.3333 68.5391 67.9778 69.3795 67.357 70.0003L65 72.3573C64.3749 72.9825 63.527 73.3337 62.643 73.3337H20.6904C19.8063 73.3337 18.9585 72.9825 18.3333 72.3573L15.9763 70.0003C15.3512 69.3752 15 68.5274 15 67.6433V55.0003H18.3333V67.6433L20.6904 70.0003H62.643L65 67.6433V12.3573L62.643 10.0003L20.6904 10.0003L18.3333 12.3573V21.667H15V12.3573C15 11.4733 15.3512 10.6254 15.9763 10.0003L18.3333 7.6433ZM18.3333 28.3337V48.3337H15V28.3337H18.3333Z" fill="#CCCCCC"/>
<path fill-rule="evenodd" clip-rule="evenodd" d="M20 28.3337H10V25.0003H20V28.3337Z" fill="#CCCCCC"/>
<path fill-rule="evenodd" clip-rule="evenodd" d="M20 55.0003H10V51.667H20V55.0003Z" fill="#CCCCCC"/>
<path fill-rule="evenodd" clip-rule="evenodd" d="M48.3333 40.0003H35V36.667H48.3333V40.0003Z" fill="#C4A96C"/>
<path d="M48.3333 40.0003V36.667L51.6667 40.0003H48.3333Z" fill="#C4A96C"/>
<path d="M35 40.0003V36.667L31.6667 40.0003H35Z" fill="#C4A96C"/>
<path fill-rule="evenodd" clip-rule="evenodd" d="M33.3333 45.0003H30V41.667H33.3333V45.0003Z" fill="#C4A96C"/>
<path fill-rule="evenodd" clip-rule="evenodd" d="M53.3333 45.0003H50V41.667H53.3333V45.0003Z" fill="#C4A96C"/>
<path fill-rule="evenodd" clip-rule="evenodd" d="M46.6667 50.0003H36.6667V46.667H46.6667V50.0003Z" fill="#C4A96C"/>
<path d="M33.3333 46.667L36.6667 50.0003V46.667H33.3333Z" fill="#C4A96C"/>
<path d="M50 46.667L46.6667 50.0003V46.667H50Z" fill="#C4A96C"/>
<path fill-rule="evenodd" clip-rule="evenodd" d="M36.1111 28.3337C35.7505 28.3337 35.3996 28.4506 35.1111 28.667L33.6531 29.7605C33.3348 29.9992 33.1125 30.3439 33.0262 30.7323L31.7323 36.5548C31.5947 37.1736 31.2836 37.7404 30.8353 38.1887L28.8215 40.2025C28.5089 40.5151 28.3333 40.939 28.3333 41.381V51.667H31.6667V50.0003H35V51.667C35 53.5079 33.5076 55.0003 31.6667 55.0003H28.3333C26.4924 55.0003 25 53.5079 25 51.667V41.381C25 40.055 25.5268 38.7832 26.4645 37.8455L28.4783 35.8317L29.7722 30.0092C30.0311 28.844 30.6983 27.8099 31.6531 27.0938L33.1111 26.0003C33.9766 25.3512 35.0293 25.0003 36.1111 25.0003H47.2222C48.3041 25.0003 49.3567 25.3512 50.2222 26.0003L51.6802 27.0938C52.635 27.8099 53.3022 28.844 53.5611 30.0092L54.855 35.8317L56.8689 37.8455C57.8065 38.7832 58.3333 40.055 58.3333 41.381V51.667C58.3333 53.5079 56.841 55.0003 55 55.0003H51.6667C49.8257 55.0003 48.3333 53.5079 48.3333 51.667V50.0003H51.6667V51.667H55V41.381C55 40.939 54.8244 40.5151 54.5118 40.2025L52.498 38.1887C52.0497 37.7404 51.7386 37.1736 51.6011 36.5548L50.3072 30.7323C50.2209 30.3439 49.9985 29.9992 49.6802 29.7605L48.2222 28.667C47.9337 28.4506 47.5828 28.3337 47.2222 28.3337H36.1111Z" fill="#C4A96C"/>
<path fill-rule="evenodd" clip-rule="evenodd" d="M56.6667 33.3337H58.3333V36.667H56.6667V33.3337Z" fill="#C4A96C"/>
<path d="M56.6667 36.667V33.3337L53.3333 36.667H56.6667Z" fill="#C4A96C"/>
<path fill-rule="evenodd" clip-rule="evenodd" d="M26.6667 33.3337H25V36.667H26.6667V33.3337Z" fill="#C4A96C"/>
<path d="M26.6667 36.667V33.3337L30 36.667H26.6667Z" fill="#C4A96C"/>
</svg>
