<svg width="80" height="80" viewBox="0 0 80 80" fill="none" xmlns="http://www.w3.org/2000/svg">
<path fill-rule="evenodd" clip-rule="evenodd" d="M18.3333 7.64233C18.9585 7.0172 19.8063 6.66602 20.6904 6.66602H62.643C63.527 6.66602 64.3749 7.01721 65 7.64233L67.357 9.99935C67.9674 10.6097 68.3333 11.4328 68.3333 12.3373V67.648C68.3333 68.5381 67.9778 69.3785 67.357 69.9993L65 72.3564C64.3749 72.9815 63.527 73.3327 62.643 73.3327H20.6904C19.8063 73.3327 18.9585 72.9815 18.3333 72.3564L15.9763 69.9993C15.3512 69.3742 15 68.5264 15 67.6423V54.9993H18.3333V67.6423L20.6904 69.9993H62.643L65 67.6423V12.3564L62.643 9.99935L20.6904 9.99935L18.3333 12.3564V21.666H15V12.3564C15 11.4723 15.3512 10.6245 15.9763 9.99935L18.3333 7.64233ZM18.3333 28.3327V48.3327H15V28.3327H18.3333Z" fill="#CCCCCC"/>
<path fill-rule="evenodd" clip-rule="evenodd" d="M20 28.3327H10V24.9993H20V28.3327Z" fill="#CCCCCC"/>
<path fill-rule="evenodd" clip-rule="evenodd" d="M20 54.9993H10V51.666H20V54.9993Z" fill="#CCCCCC"/>
<path fill-rule="evenodd" clip-rule="evenodd" d="M38.3222 23.4043L36.7411 24.544L35.4481 28.4237C35.0632 28.6229 34.689 28.8395 34.3265 29.0725L30.3175 28.2523L28.5401 29.0518L25.0618 35.0763L25.2583 37.0155L27.9751 40.0789C27.9653 40.2925 27.9603 40.5072 27.9603 40.723C27.9603 40.9388 27.9653 41.1536 27.9751 41.3672L25.2583 44.4306L25.0618 46.3697L28.5401 52.3942L30.3175 53.1937L34.3265 52.3736C34.689 52.6066 35.0632 52.8232 35.4481 53.0223L36.7411 56.902L38.3222 58.0417H45.2058L41.8724 54.7084H39.5236L38.3883 51.3018L37.4915 50.3091C36.843 50.0171 36.229 49.6609 35.6577 49.2484L34.3481 48.9668L30.8262 49.6873L28.5493 45.7435L30.9348 43.0536L31.3462 41.7821C31.3115 41.4343 31.2936 41.081 31.2936 40.723C31.2936 40.3651 31.3115 40.0118 31.3462 39.6639L30.9348 38.3924L28.5493 35.7026L30.8262 31.7588L34.3481 32.4792L35.6577 32.1976C36.229 31.7852 36.843 31.429 37.4915 31.1369L38.3883 30.1442L39.5236 26.7376H44.0775L45.2133 30.1443L46.11 31.1369C46.7582 31.4288 47.3719 31.7848 47.9429 32.197L49.2526 32.4784L52.7717 31.7581L55.0487 35.7019L52.6663 38.3888L52.255 39.6607C52.29 40.0096 52.3079 40.3639 52.3079 40.723C52.3079 41.0821 52.29 41.4365 52.255 41.7854L52.6663 43.0573L55.0487 45.7441L52.7717 49.688L49.2526 48.9676L47.9429 49.2491C47.3719 49.6613 46.7582 50.0173 46.11 50.3092L45.2133 51.3017L44.1016 54.636H47.6154L48.1533 53.0224C48.5378 52.8235 48.9116 52.6071 49.2738 52.3744L53.2802 53.1945L55.0578 52.395L58.536 46.3705L58.3397 44.4315L55.6263 41.3713C55.6363 41.1563 55.6413 40.9402 55.6413 40.723C55.6413 40.5058 55.6363 40.2897 55.6263 40.0748L58.3397 37.0145L58.536 35.0755L55.0578 29.051L53.2802 28.2515L49.2738 29.0716C48.9116 28.8389 48.5378 28.6226 48.1533 28.4236L46.8598 24.5438L45.2787 23.4043H38.3222Z" fill="#C4A96C"/>
<path d="M38.3203 38.9837V42.462H47.0159L43.5377 38.9837H38.3203Z" fill="#C4A96C"/>
</svg>
