<svg width="80" height="80" viewBox="0 0 80 80" fill="none" xmlns="http://www.w3.org/2000/svg">
<path fill-rule="evenodd" clip-rule="evenodd" d="M34.1673 69.9997H30.834V66.6663L34.1673 69.9997Z" fill="#CCCCCC"/>
<path fill-rule="evenodd" clip-rule="evenodd" d="M34.1673 69.9997L30.834 66.6663V69.9997H34.1673Z" fill="#CCCCCC"/>
<path fill-rule="evenodd" clip-rule="evenodd" d="M31.6395 10.016L30.834 11.0143V15.6509L31.6395 16.6493H46.7118L47.5173 15.6509V11.0143L46.7118 10.016H31.6395ZM29.29 7.61952C29.755 7.01851 30.4547 6.68262 31.184 6.68262H47.1673C47.9727 6.68262 48.635 7.09813 49.0406 7.59389L49.0478 7.60272L50.2496 9.09236L50.2673 9.11595C50.6122 9.57585 50.8507 10.1878 50.8507 10.8493V15.816C50.8507 16.4344 50.6638 17.0705 50.2248 17.6037L49.0613 19.0457C48.5963 19.6467 47.8966 19.9826 47.1673 19.9826H31.184C30.3786 19.9826 29.7163 19.5671 29.3107 19.0713L29.3035 19.0625L28.1017 17.5729L28.084 17.5493C27.7391 17.0894 27.5007 16.4774 27.5007 15.816V10.8493C27.5007 10.2308 27.6875 9.5947 28.1266 9.06147L29.29 7.61952Z" fill="#CCCCCC"/>
<path fill-rule="evenodd" clip-rule="evenodd" d="M48.334 13.333H57.3007C58.4825 13.333 59.5598 13.8671 60.3179 14.7313L61.355 15.9021C62.0979 16.7512 62.5007 17.862 62.5007 18.9997V37.4997H59.1673V18.9997C59.1673 18.6389 59.038 18.3177 58.8489 18.1001L57.813 16.9305C57.638 16.7305 57.4503 16.6663 57.3007 16.6663H48.334V13.333Z" fill="#CCCCCC"/>
<path fill-rule="evenodd" clip-rule="evenodd" d="M21.034 16.6663C20.8844 16.6663 20.6966 16.7305 20.5216 16.9305L20.515 16.9381L19.4857 18.1001C19.2967 18.3177 19.1673 18.6389 19.1673 18.9997V64.333C19.1673 64.6938 19.2967 65.0151 19.4858 65.2326L19.4883 65.2355L20.5216 66.4021C20.6967 66.6022 20.8844 66.6663 21.034 66.6663H30.834V69.9997H21.034C19.8523 69.9997 18.775 69.4656 18.0169 68.6016L18.013 68.5972L16.9797 67.4305C16.2368 66.5815 15.834 65.4706 15.834 64.333V18.9997C15.834 17.862 16.2368 16.7512 16.9797 15.9022L16.9863 15.8946L18.0167 14.7313C18.7749 13.8671 19.8522 13.333 21.034 13.333H30.0007V16.6663H21.034Z" fill="#CCCCCC"/>
<path fill-rule="evenodd" clip-rule="evenodd" d="M50.834 31.6663H24.1673V28.333H47.5007L50.834 31.6663ZM32.5007 44.9997H24.1673V48.333H35.834L32.5007 44.9997ZM39.1673 36.6663H24.1673V39.9997H42.5007L39.1673 36.6663Z" fill="#CCCCCC"/>
<path fill-rule="evenodd" clip-rule="evenodd" d="M47.54 43.8525C48.1492 42.8779 49.2174 42.2859 50.3667 42.2859L54.4428 42.286V54.119H55.2762V57.4524H54.4428C52.6019 57.4524 51.1095 55.96 51.1095 54.119V45.6193L50.3667 45.6192L46.9429 51.0971L46.9437 58.262L52.6334 63.9525C53.2584 64.5776 53.6095 65.4254 53.6095 66.3093V73.619H50.2762V66.3093L44.5865 60.6189C43.9616 59.9939 43.6105 59.1462 43.6104 58.2624L43.6096 51.0975C43.6095 50.4726 43.7851 49.8603 44.1163 49.3304L47.54 43.8525ZM56.1095 42.2861H60.1858C61.3351 42.2861 62.4033 42.8781 63.0124 43.8527L66.4362 49.3306C66.7673 49.8602 66.9428 50.4723 66.9429 51.0969L66.9437 58.2617C66.9438 59.1459 66.5926 59.994 65.9672 60.6192L60.2844 66.3012L60.3953 73.5991L57.0622 73.6388L56.9513 66.341C56.9406 65.4431 57.2926 64.5789 57.9276 63.944L63.6104 58.262L63.6096 51.0973L60.1858 45.6194H59.4428V52.2857H56.1095L56.1095 42.2861Z" fill="#CCCCCC"/>
<path fill-rule="evenodd" clip-rule="evenodd" d="M58.6107 57.4528L55.2762 57.4524V54.119L58.6107 57.4528Z" fill="#CCCCCC"/>
<path fill-rule="evenodd" clip-rule="evenodd" d="M47.5398 43.8537C48.149 42.8791 49.2172 42.2871 50.3665 42.2871L54.4426 42.2872V54.1202H55.276V57.4536H54.4426C52.6017 57.4536 51.1093 55.9612 51.1093 54.1202V45.6205L50.3665 45.6204L46.9427 51.0983L46.9435 58.2632L52.6332 63.9537C53.2582 64.5788 53.6093 65.4265 53.6093 66.3105V73.6202H50.276V66.3105L44.5863 60.6201C43.9614 59.9951 43.6103 59.1474 43.6102 58.2636L43.6094 51.0987C43.6093 50.4738 43.7849 49.8615 44.1161 49.3316L47.5398 43.8537ZM56.1093 42.2873H60.1856C61.3349 42.2873 62.4031 42.8793 63.0122 43.8539L66.436 49.3317C66.767 49.8614 66.9426 50.4735 66.9427 51.0981L66.9435 58.2628C66.9436 59.1471 66.5924 59.9952 65.967 60.6204L60.2842 66.3024L60.3951 73.6003L57.062 73.64L56.9511 66.3422C56.9404 65.4443 57.2924 64.5801 57.9274 63.9452L63.6102 58.2632L63.6094 51.0985L60.1856 45.6206H59.4426V52.2869H56.1093L56.1093 42.2873Z" fill="#C4A96C"/>
<path fill-rule="evenodd" clip-rule="evenodd" d="M58.6105 57.454L55.276 57.4536V54.1202L58.6105 57.454Z" fill="#C4A96C"/>
</svg>
